<?xml version="1.0" encoding="UTF-8" standalone="no"?>
<!DOCTYPE svg PUBLIC "-//W3C//DTD SVG 1.1//EN"
 "http://www.w3.org/Graphics/SVG/1.1/DTD/svg11.dtd">
<!-- Generated by graphviz version 2.47.1 (0)
 -->
<!-- Pages: 1 -->
<svg width="1982pt" height="658pt"
 viewBox="0.00 0.00 1981.84 658.29" xmlns="http://www.w3.org/2000/svg" xmlns:xlink="http://www.w3.org/1999/xlink">
<g id="graph0" class="graph" transform="scale(1 1) rotate(0) translate(4 654.29)">
<polygon fill="white" stroke="transparent" points="-4,4 -4,-654.29 1977.84,-654.29 1977.84,4 -4,4"/>
<text text-anchor="middle" x="986.92" y="-7.8" font-family="Times New Roman,serif" font-size="14.00">State Machine</text>
<!-- user -->
<g id="node1" class="node">
<title>user</title>
<ellipse fill="darksalmon" stroke="red" cx="65.84" cy="-270.29" rx="43" ry="43"/>
<ellipse fill="none" stroke="red" cx="65.84" cy="-270.29" rx="47" ry="47"/>
<text text-anchor="middle" x="65.84" y="-266.59" font-family="Times New Roman,serif" font-size="14.00">user</text>
</g>
<!-- menu -->
<g id="node2" class="node">
<title>menu</title>
<ellipse fill="white" stroke="black" cx="469.84" cy="-173.29" rx="43" ry="43"/>
<text text-anchor="middle" x="469.84" y="-169.59" font-family="Times New Roman,serif" font-size="14.00">menu</text>
</g>
<!-- user&#45;&gt;menu -->
<g id="edge1" class="edge">
<title>user&#45;&gt;menu</title>
<path fill="none" stroke="black" d="M107.72,-248.55C131.04,-237.02 161.16,-223.57 189.34,-215.29 266.69,-192.58 359.86,-181.72 416.7,-176.86"/>
<polygon fill="black" stroke="black" points="417.2,-180.33 426.88,-176.02 416.62,-173.35 417.2,-180.33"/>
<text text-anchor="middle" x="270.84" y="-219.09" font-family="Times New Roman,serif" font-size="14.00">advance [is_going_to_menu]</text>
</g>
<!-- choose_type -->
<g id="node3" class="node">
<title>choose_type</title>
<ellipse fill="white" stroke="black" cx="931.84" cy="-405.29" rx="46.37" ry="46.37"/>
<text text-anchor="middle" x="931.84" y="-401.59" font-family="Times New Roman,serif" font-size="14.00">choose_type</text>
</g>
<!-- menu&#45;&gt;choose_type -->
<g id="edge2" class="edge">
<title>menu&#45;&gt;choose_type</title>
<path fill="none" stroke="black" d="M493.43,-209.54C515.65,-242.14 552.54,-288.85 596.34,-315.29 676.63,-363.76 710.94,-340.33 801.34,-365.29 826.65,-372.28 854.49,-380.77 877.85,-388.13"/>
<polygon fill="black" stroke="black" points="876.98,-391.53 887.57,-391.21 879.1,-384.86 876.98,-391.53"/>
<text text-anchor="middle" x="698.84" y="-369.09" font-family="Times New Roman,serif" font-size="14.00">advance [is_going_to_choose_type]</text>
</g>
<!-- introduction -->
<g id="node4" class="node">
<title>introduction</title>
<ellipse fill="white" stroke="black" cx="931.84" cy="-101.29" rx="43.68" ry="43.68"/>
<text text-anchor="middle" x="931.84" y="-97.59" font-family="Times New Roman,serif" font-size="14.00">introduction</text>
</g>
<!-- menu&#45;&gt;introduction -->
<g id="edge3" class="edge">
<title>menu&#45;&gt;introduction</title>
<path fill="none" stroke="black" d="M511.61,-162.79C536.06,-156.77 567.84,-149.4 596.34,-144.29 695.36,-126.53 812.13,-113.24 878.23,-106.42"/>
<polygon fill="black" stroke="black" points="878.8,-109.88 888.39,-105.38 878.09,-102.92 878.8,-109.88"/>
<text text-anchor="middle" x="698.84" y="-148.09" font-family="Times New Roman,serif" font-size="14.00">advance [is_going_to_introduction]</text>
</g>
<!-- cancel -->
<g id="node5" class="node">
<title>cancel</title>
<ellipse fill="white" stroke="black" cx="1913.84" cy="-295.29" rx="43" ry="43"/>
<text text-anchor="middle" x="1913.84" y="-291.59" font-family="Times New Roman,serif" font-size="14.00">cancel</text>
</g>
<!-- menu&#45;&gt;cancel -->
<g id="edge4" class="edge">
<title>menu&#45;&gt;cancel</title>
<path fill="none" stroke="black" d="M512.92,-170.64C656.54,-162.29 1140.37,-140.15 1534.84,-192.29 1655.6,-208.25 1792.38,-252.28 1863.67,-277.3"/>
<polygon fill="black" stroke="black" points="1862.7,-280.67 1873.29,-280.7 1865.03,-274.07 1862.7,-280.67"/>
<text text-anchor="middle" x="1164.84" y="-172.09" font-family="Times New Roman,serif" font-size="14.00">advance [is_going_to_cancel]</text>
</g>
<!-- choose_type&#45;&gt;user -->
<g id="edge5" class="edge">
<title>choose_type&#45;&gt;user</title>
<path fill="none" stroke="black" d="M885.53,-403.28C821.1,-400.11 699.37,-392.97 596.34,-380.29 414.17,-357.87 367.5,-354.45 189.34,-310.29 166.27,-304.57 141.26,-296.71 119.88,-289.47"/>
<polygon fill="black" stroke="black" points="120.93,-286.13 110.34,-286.2 118.66,-292.76 120.93,-286.13"/>
<text text-anchor="middle" x="469.84" y="-374.09" font-family="Times New Roman,serif" font-size="14.00">go_back</text>
</g>
<!-- choose_type&#45;&gt;cancel -->
<g id="edge10" class="edge">
<title>choose_type&#45;&gt;cancel</title>
<path fill="none" stroke="black" d="M966.91,-435.49C991.56,-455.33 1026.67,-479.69 1062.34,-491.29 1162.23,-523.78 1431.03,-520.28 1534.84,-504.29 1654.6,-485.86 1692.43,-487.04 1794.84,-422.29 1829.57,-400.33 1860.82,-365.68 1882.42,-338.11"/>
<polygon fill="black" stroke="black" points="1885.2,-340.23 1888.53,-330.17 1879.66,-335.96 1885.2,-340.23"/>
<text text-anchor="middle" x="1450.84" y="-519.09" font-family="Times New Roman,serif" font-size="14.00">advance [is_going_to_cancel]</text>
</g>
<!-- type1 -->
<g id="node6" class="node">
<title>type1</title>
<ellipse fill="white" stroke="black" cx="1450.84" cy="-452.29" rx="43" ry="43"/>
<text text-anchor="middle" x="1450.84" y="-448.59" font-family="Times New Roman,serif" font-size="14.00">type1</text>
</g>
<!-- choose_type&#45;&gt;type1 -->
<g id="edge6" class="edge">
<title>choose_type&#45;&gt;type1</title>
<path fill="none" stroke="black" d="M977.74,-411.32C1002.64,-414.54 1034.17,-418.43 1062.34,-421.29 1182.26,-433.49 1323.46,-443.76 1397.88,-448.85"/>
<polygon fill="black" stroke="black" points="1397.72,-452.35 1407.93,-449.53 1398.19,-445.36 1397.72,-452.35"/>
<text text-anchor="middle" x="1164.84" y="-443.09" font-family="Times New Roman,serif" font-size="14.00">advance [is_going_to_type1]</text>
</g>
<!-- type2 -->
<g id="node7" class="node">
<title>type2</title>
<ellipse fill="white" stroke="black" cx="1450.84" cy="-348.29" rx="43" ry="43"/>
<text text-anchor="middle" x="1450.84" y="-344.59" font-family="Times New Roman,serif" font-size="14.00">type2</text>
</g>
<!-- choose_type&#45;&gt;type2 -->
<g id="edge7" class="edge">
<title>choose_type&#45;&gt;type2</title>
<path fill="none" stroke="black" d="M975.74,-390.38C1000.7,-382.38 1032.94,-373.19 1062.34,-368.29 1181.02,-348.54 1322.71,-346.61 1397.54,-347.25"/>
<polygon fill="black" stroke="black" points="1397.61,-350.75 1407.65,-347.36 1397.68,-343.76 1397.61,-350.75"/>
<text text-anchor="middle" x="1164.84" y="-372.09" font-family="Times New Roman,serif" font-size="14.00">advance [is_going_to_type2]</text>
</g>
<!-- type3 -->
<g id="node8" class="node">
<title>type3</title>
<ellipse fill="white" stroke="black" cx="1450.84" cy="-244.29" rx="43" ry="43"/>
<text text-anchor="middle" x="1450.84" y="-240.59" font-family="Times New Roman,serif" font-size="14.00">type3</text>
</g>
<!-- choose_type&#45;&gt;type3 -->
<g id="edge8" class="edge">
<title>choose_type&#45;&gt;type3</title>
<path fill="none" stroke="black" d="M962.24,-370.21C986.29,-344.09 1022.71,-310.01 1062.34,-292.29 1173.91,-242.42 1320.5,-238.99 1397.47,-241.32"/>
<polygon fill="black" stroke="black" points="1397.74,-244.83 1407.85,-241.68 1397.98,-237.83 1397.74,-244.83"/>
<text text-anchor="middle" x="1164.84" y="-296.09" font-family="Times New Roman,serif" font-size="14.00">advance [is_going_to_type3]</text>
</g>
<!-- type4 -->
<g id="node9" class="node">
<title>type4</title>
<ellipse fill="white" stroke="black" cx="1450.84" cy="-607.29" rx="43" ry="43"/>
<text text-anchor="middle" x="1450.84" y="-603.59" font-family="Times New Roman,serif" font-size="14.00">type4</text>
</g>
<!-- choose_type&#45;&gt;type4 -->
<g id="edge9" class="edge">
<title>choose_type&#45;&gt;type4</title>
<path fill="none" stroke="black" d="M950.1,-447.74C970.1,-490.78 1007.5,-555.19 1062.34,-585.29 1090.98,-601.01 1298.51,-605.54 1397.54,-606.81"/>
<polygon fill="black" stroke="black" points="1397.59,-610.31 1407.63,-606.93 1397.67,-603.31 1397.59,-610.31"/>
<text text-anchor="middle" x="1164.84" y="-607.09" font-family="Times New Roman,serif" font-size="14.00">advance [is_going_to_type4]</text>
</g>
<!-- introduction&#45;&gt;user -->
<g id="edge11" class="edge">
<title>introduction&#45;&gt;user</title>
<path fill="none" stroke="black" d="M888.19,-95.82C769.79,-82.66 429.98,-58.71 189.34,-180.29 161.02,-194.6 132.28,-215.32 109.76,-233.28"/>
<polygon fill="black" stroke="black" points="107.34,-230.74 101.76,-239.75 111.74,-236.18 107.34,-230.74"/>
<text text-anchor="middle" x="469.84" y="-108.09" font-family="Times New Roman,serif" font-size="14.00">go_back</text>
</g>
<!-- introduction&#45;&gt;cancel -->
<g id="edge12" class="edge">
<title>introduction&#45;&gt;cancel</title>
<path fill="none" stroke="black" d="M974.79,-93.37C1104.87,-70.95 1509.81,-17.48 1794.84,-159.29 1834.24,-178.89 1865.99,-218.06 1886.59,-249.35"/>
<polygon fill="black" stroke="black" points="1883.75,-251.41 1892.1,-257.94 1889.65,-247.63 1883.75,-251.41"/>
<text text-anchor="middle" x="1450.84" y="-85.09" font-family="Times New Roman,serif" font-size="14.00">advance [is_going_to_cancel]</text>
</g>
<!-- cancel&#45;&gt;user -->
<g id="edge25" class="edge">
<title>cancel&#45;&gt;user</title>
<path fill="none" stroke="black" d="M1899.6,-254.48C1882.69,-209.09 1848.96,-137.07 1794.84,-98.29 1668.08,-7.45 1607.79,-24.29 1451.84,-24.29 468.84,-24.29 468.84,-24.29 468.84,-24.29 337.64,-24.29 297,-44.3 189.34,-119.29 150.82,-146.13 118,-188.37 96.06,-221.36"/>
<polygon fill="black" stroke="black" points="92.97,-219.68 90.44,-229.96 98.84,-223.5 92.97,-219.68"/>
<text text-anchor="middle" x="931.84" y="-28.09" font-family="Times New Roman,serif" font-size="14.00">go_back</text>
</g>
<!-- type1&#45;&gt;user -->
<g id="edge13" class="edge">
<title>type1&#45;&gt;user</title>
<path fill="none" stroke="black" d="M1409.29,-463.53C1372.56,-473.09 1316.8,-486.07 1267.34,-491.29 1176.74,-500.87 1153.17,-498.53 1062.34,-491.29 796.09,-470.06 327.78,-394.93 189.34,-342.29 162.78,-332.19 135.31,-316.6 113.14,-302.51"/>
<polygon fill="black" stroke="black" points="114.9,-299.48 104.6,-296.99 111.1,-305.36 114.9,-299.48"/>
<text text-anchor="middle" x="698.84" y="-466.09" font-family="Times New Roman,serif" font-size="14.00">go_back</text>
</g>
<!-- type1&#45;&gt;choose_type -->
<g id="edge14" class="edge">
<title>type1&#45;&gt;choose_type</title>
<path fill="none" stroke="black" d="M1408.05,-458.58C1336.46,-468.1 1186.13,-482.64 1062.34,-458.29 1034.78,-452.87 1005.69,-441.53 982.08,-430.73"/>
<polygon fill="black" stroke="black" points="983.52,-427.54 972.98,-426.47 980.56,-433.88 983.52,-427.54"/>
<text text-anchor="middle" x="1164.84" y="-476.09" font-family="Times New Roman,serif" font-size="14.00">advance [is_going_to_choose_type]</text>
</g>
<!-- type1&#45;&gt;cancel -->
<g id="edge15" class="edge">
<title>type1&#45;&gt;cancel</title>
<path fill="none" stroke="black" d="M1492.49,-441.53C1557.24,-424 1687.44,-387.24 1794.84,-347.29 1818.51,-338.49 1844.24,-327.35 1865.6,-317.64"/>
<polygon fill="black" stroke="black" points="1867.15,-320.78 1874.78,-313.43 1864.24,-314.41 1867.15,-320.78"/>
<text text-anchor="middle" x="1710.84" y="-407.09" font-family="Times New Roman,serif" font-size="14.00">advance [is_going_to_cancel]</text>
</g>
<!-- type2&#45;&gt;user -->
<g id="edge16" class="edge">
<title>type2&#45;&gt;user</title>
<path fill="none" stroke="black" d="M1408.87,-337.61C1372.1,-328.54 1316.52,-316.1 1267.34,-310.29 791.35,-254.03 668.04,-303.51 189.34,-279.29 167.56,-278.19 143.64,-276.53 122.75,-274.94"/>
<polygon fill="black" stroke="black" points="123.01,-271.45 112.77,-274.16 122.47,-278.43 123.01,-271.45"/>
<text text-anchor="middle" x="698.84" y="-289.09" font-family="Times New Roman,serif" font-size="14.00">go_back</text>
</g>
<!-- type2&#45;&gt;choose_type -->
<g id="edge17" class="edge">
<title>type2&#45;&gt;choose_type</title>
<path fill="none" stroke="black" d="M1408.76,-357.68C1371.93,-365.74 1316.3,-377.01 1267.34,-383.29 1169.67,-395.82 1054.99,-401.4 988.45,-403.74"/>
<polygon fill="black" stroke="black" points="988.07,-400.25 978.19,-404.09 988.3,-407.25 988.07,-400.25"/>
<text text-anchor="middle" x="1164.84" y="-404.09" font-family="Times New Roman,serif" font-size="14.00">advance [is_going_to_choose_type]</text>
</g>
<!-- type2&#45;&gt;cancel -->
<g id="edge18" class="edge">
<title>type2&#45;&gt;cancel</title>
<path fill="none" stroke="black" d="M1493.98,-343.45C1578.52,-333.73 1768.6,-311.88 1860.77,-301.28"/>
<polygon fill="black" stroke="black" points="1861.44,-304.72 1870.97,-300.11 1860.64,-297.77 1861.44,-304.72"/>
<text text-anchor="middle" x="1710.84" y="-332.09" font-family="Times New Roman,serif" font-size="14.00">advance [is_going_to_cancel]</text>
</g>
<!-- type3&#45;&gt;user -->
<g id="edge19" class="edge">
<title>type3&#45;&gt;user</title>
<path fill="none" stroke="black" d="M1407.7,-244.41C1336.52,-244.65 1187.97,-245.35 1062.34,-247.29 704.54,-252.81 274.51,-264.44 122.98,-268.69"/>
<polygon fill="black" stroke="black" points="122.88,-265.19 112.98,-268.97 123.08,-272.19 122.88,-265.19"/>
<text text-anchor="middle" x="698.84" y="-261.09" font-family="Times New Roman,serif" font-size="14.00">go_back</text>
</g>
<!-- type3&#45;&gt;choose_type -->
<g id="edge20" class="edge">
<title>type3&#45;&gt;choose_type</title>
<path fill="none" stroke="black" d="M1410.69,-260.57C1374.21,-275.07 1317.99,-295.73 1267.34,-307.29 1177.91,-327.71 1149.48,-302.62 1062.34,-331.29 1032.66,-341.06 1002.18,-358.06 978.26,-373.31"/>
<polygon fill="black" stroke="black" points="976.24,-370.45 969.76,-378.83 980.05,-376.32 976.24,-370.45"/>
<text text-anchor="middle" x="1164.84" y="-335.09" font-family="Times New Roman,serif" font-size="14.00">advance [is_going_to_choose_type]</text>
</g>
<!-- type3&#45;&gt;cancel -->
<g id="edge21" class="edge">
<title>type3&#45;&gt;cancel</title>
<path fill="none" stroke="black" d="M1493.89,-247.86C1558.63,-253.48 1686.58,-265.13 1794.84,-278.29 1816.55,-280.93 1840.44,-284.29 1861.01,-287.32"/>
<polygon fill="black" stroke="black" points="1860.72,-290.81 1871.13,-288.82 1861.75,-283.89 1860.72,-290.81"/>
<text text-anchor="middle" x="1710.84" y="-282.09" font-family="Times New Roman,serif" font-size="14.00">advance [is_going_to_cancel]</text>
</g>
<!-- type4&#45;&gt;user -->
<g id="edge22" class="edge">
<title>type4&#45;&gt;user</title>
<path fill="none" stroke="black" d="M1408.04,-613.66C1336.74,-623.47 1187.24,-639.42 1062.34,-622.29 663.21,-567.56 543.37,-570.57 189.34,-378.29 157.76,-361.14 127.41,-334.49 104.83,-311.95"/>
<polygon fill="black" stroke="black" points="107.29,-309.46 97.77,-304.8 102.3,-314.38 107.29,-309.46"/>
<text text-anchor="middle" x="698.84" y="-590.09" font-family="Times New Roman,serif" font-size="14.00">go_back</text>
</g>
<!-- type4&#45;&gt;choose_type -->
<g id="edge23" class="edge">
<title>type4&#45;&gt;choose_type</title>
<path fill="none" stroke="black" d="M1408.59,-597.73C1371.64,-589.24 1315.94,-576.61 1267.34,-566.29 1176.45,-547 1145.08,-567.57 1062.34,-525.29 1025.82,-506.63 992.11,-474.7 968.23,-448.47"/>
<polygon fill="black" stroke="black" points="970.73,-446.01 961.46,-440.88 965.51,-450.67 970.73,-446.01"/>
<text text-anchor="middle" x="1164.84" y="-570.09" font-family="Times New Roman,serif" font-size="14.00">advance [is_going_to_choose_type]</text>
</g>
<!-- type4&#45;&gt;cancel -->
<g id="edge24" class="edge">
<title>type4&#45;&gt;cancel</title>
<path fill="none" stroke="black" d="M1493.88,-611.23C1563.8,-615.5 1705.17,-614.07 1794.84,-545.29 1858.25,-496.66 1889.09,-405.53 1902.91,-347.76"/>
<polygon fill="black" stroke="black" points="1906.39,-348.26 1905.22,-337.73 1899.56,-346.69 1906.39,-348.26"/>
<text text-anchor="middle" x="1710.84" y="-610.09" font-family="Times New Roman,serif" font-size="14.00">advance [is_going_to_cancel]</text>
</g>
</g>
</svg>
